<svg width="95" height="78" viewBox="0 0 95 78" fill="none" xmlns="http://www.w3.org/2000/svg">
<path fill-rule="evenodd" clip-rule="evenodd" d="M7.3218 33.7637C32.3184 22.8731 48.9868 15.6933 57.3268 12.2244C81.1393 2.31995 86.0874 0.599441 89.3124 0.542628C90.0217 0.530133 91.6077 0.705924 92.6351 1.53954C93.5025 2.24343 93.7412 3.19428 93.8554 3.86164C93.9696 4.529 94.1119 6.04927 93.9988 7.23717C92.7084 20.7956 87.1248 53.6984 84.2842 68.884C83.0822 75.3097 80.7155 77.4641 78.4243 77.675C73.4449 78.1332 69.6637 74.3842 64.8409 71.2228C57.2942 66.2758 53.0307 63.1963 45.7053 58.369C37.2395 52.7902 42.7276 49.7239 47.5522 44.7129C48.8148 43.4014 70.7542 23.4458 71.1789 21.6355C71.232 21.4091 71.2813 20.5652 70.7799 20.1196C70.2785 19.6739 69.5386 19.8263 69.0046 19.9475C68.2477 20.1193 56.1916 28.0879 32.8365 43.8533C29.4144 46.2031 26.3148 47.3481 23.5377 47.2881C20.4762 47.2219 14.5869 45.557 10.2089 44.1339C4.83905 42.3884 0.571214 41.4655 0.942847 38.501C1.13642 36.957 3.26273 35.3779 7.3218 33.7637Z" fill="white"/>
</svg>
