<?xml version="1.0" encoding="UTF-8"?>
<svg width="16px" height="16px" viewBox="0 0 16 16" version="1.1" xmlns="http://www.w3.org/2000/svg" xmlns:xlink="http://www.w3.org/1999/xlink">
    <title>icon</title>
    <g id="Symbols" stroke="none" stroke-width="1" fill="none" fill-rule="evenodd">
        <g id="dropdown" transform="translate(-62.000000, -17.000000)">
            <g id="icon" transform="translate(62.000000, 17.000000)">
                <polygon id="Path" points="0 16 0 0 16 0 16 16"></polygon>
                <g id="Group" transform="translate(3.045000, 5.401432)" fill="#556980" fill-rule="nonzero">
                    <path d="M8.69545325,0.012572031 C8.46956918,0.0478426625 8.25996179,0.156179553 8.09991476,0.32292817 L4.95325529,3.46956843 L1.79555505,0.311943516 C1.60556599,0.116173684 1.33384004,0.00126950898 1.0500217,0.00125778886 C0.622388346,0.00136133786 0.2376849,0.260534299 0.0770299959,0.656612336 C-0.083624387,1.0526939 0.0118355732,1.5066254 0.318412692,1.80444764 L4.2106759,5.69682211 C4.62081296,6.1067892 5.28541799,6.1067892 5.69544511,5.69693202 L9.59555505,1.79682211 C9.89706398,1.50765396 9.9933221,1.04661323 9.82694409,0.646697346 C9.66056293,0.24677859 9.26569247,-0.00993479217 8.8326685,0.000294889521 L8.69545325,0.012572031 Z" id="Path"></path>
                </g>
            </g>
        </g>
    </g>
</svg>