<?xml version="1.0" encoding="UTF-8"?>
<svg width="64px" height="64px" viewBox="0 0 64 64" version="1.1" xmlns="http://www.w3.org/2000/svg" xmlns:xlink="http://www.w3.org/1999/xlink">
    <title>logo</title>
    <g id="logo" stroke="none" stroke-width="1" fill="none" fill-rule="evenodd">
        <path d="M25.015787,15.990366 L29.3795894,24.3866287 L20.0218915,25.7914378 L21.1546237,23.5685509 C17.9239168,22.3760435 14.2013211,23.1227631 11.672813,25.6512713 C8.15809437,29.1659899 8.15809437,34.8644747 11.672813,38.3791933 C15.1875316,41.893912 20.8860164,41.893912 24.4007351,38.3791933 C24.8094315,37.9704969 25.1737897,37.5296329 25.4919112,37.0611035 L33.182774,24.237366 C34.188998,22.7948326 34.9208946,21.8447814 35.3784637,21.3872122 C41.2363281,15.5293478 50.7338028,15.5293478 56.5916672,21.3872122 C62.4495316,27.2450766 62.4495316,36.7425513 56.5916672,42.6004156 C52.1856851,47.0063977 45.6434158,48.1411069 40.1420295,45.8139007 L38.8826417,48.2871646 L34.5188392,39.8909019 L43.8765372,38.4860928 L42.8777295,40.4446018 C46.0893267,41.6244211 49.8111447,40.8956567 52.3490265,38.3577749 C55.8637451,34.8430563 55.8637451,29.1445715 52.3490265,25.6298529 C48.8343079,22.1151343 43.1358231,22.1151343 39.6211044,25.6298529 C39.2474712,26.0034861 38.4464797,27.1044031 38.363373,27.2425243 C36.6827954,30.0356002 34.1750621,34.2332423 30.840173,39.8354506 C30.225003,40.8411381 29.4896259,41.7755838 28.6433757,42.621834 C22.7855114,48.4796984 13.2880367,48.4796984 7.43017231,42.621834 C1.57230793,36.7639696 1.57230793,27.266495 7.43017231,21.4086306 C11.8167189,17.022084 18.3557514,15.8533408 23.890185,18.2002825 L25.015787,15.990366 Z" id="Path" fill="#000000" fill-rule="nonzero"></path>
    </g>
</svg>